<svg xmlns="http://www.w3.org/2000/svg" viewBox="0 0 512 512">
  <!-- Speed lines -->
  <rect x="28" y="196" width="112" height="18" rx="9" fill="#2563EB"/>
  <rect x="56" y="234" width="84" height="18" rx="9" fill="#2563EB"/>
  <rect x="84" y="272" width="56" height="18" rx="9" fill="#2563EB"/>

  <!-- Circle ring -->
  <circle cx="296" cy="256" r="156" stroke="#2563EB" stroke-width="26" fill="none"/>

  <!-- Bold S, stroke-based for consistent weight -->
  <g transform="translate(296,256) scale(1,-1)">
    <path fill="none" stroke="#2563EB" stroke-width="26" stroke-linecap="round" stroke-linejoin="round" d="
      M 52 68
      C 36 82, 12 90, -12 90
      C -52 90, -72 68, -72 46
      C -72 20, -50 2, -14 -8
      L 14 -18
      C 50 -28, 72 -50, 72 -78
      C 72 -106, 48 -126, 4 -126
      C -24 -126, -50 -116, -66 -100
    "/>
  </g>
</svg>
